<svg width="12" height="10" viewBox="0 0 12 10" fill="none" xmlns="http://www.w3.org/2000/svg">
<path fill-rule="evenodd" clip-rule="evenodd" d="M3.13135 4.19995L5.76566 1.56564C6.07808 1.25322 6.07808 0.746685 5.76566 0.434266C5.45324 0.121846 4.94671 0.121846 4.63429 0.434266L0.63429 4.43427C0.32187 4.74669 0.32187 5.25322 0.63429 5.56564L4.63429 9.56564C4.94671 9.87806 5.45324 9.87806 5.76566 9.56564C6.07808 9.25322 6.07808 8.74669 5.76566 8.43427L3.13135 5.79995H10.8C11.2418 5.79995 11.6 5.44178 11.6 4.99995C11.6 4.55812 11.2418 4.19995 10.8 4.19995H3.13135Z" fill="#0B24FB"/>
<mask id="mask0_0_192" style="mask-type:alpha" maskUnits="userSpaceOnUse" x="0" y="0" width="12" height="10">
<path fill-rule="evenodd" clip-rule="evenodd" d="M3.13135 4.19995L5.76566 1.56564C6.07808 1.25322 6.07808 0.746685 5.76566 0.434266C5.45324 0.121846 4.94671 0.121846 4.63429 0.434266L0.63429 4.43427C0.32187 4.74669 0.32187 5.25322 0.63429 5.56564L4.63429 9.56564C4.94671 9.87806 5.45324 9.87806 5.76566 9.56564C6.07808 9.25322 6.07808 8.74669 5.76566 8.43427L3.13135 5.79995H10.8C11.2418 5.79995 11.6 5.44178 11.6 4.99995C11.6 4.55812 11.2418 4.19995 10.8 4.19995H3.13135Z" fill="white"/>
</mask>
<g mask="url(#mask0_0_192)">
</g>
</svg>
